<svg width="273" height="304" viewBox="0 0 273 304" fill="none" xmlns="http://www.w3.org/2000/svg">
<g opacity="0.5">
<path d="M22.2109 136.499C22.2109 165.46 33.7159 193.236 54.1949 213.715C74.6739 234.194 102.449 245.699 131.411 245.699C160.373 245.699 188.148 234.194 208.627 213.715C229.106 193.236 240.611 165.46 240.611 136.499C240.611 107.537 229.106 79.7617 208.627 59.2828C188.148 38.8038 160.373 27.2988 131.411 27.2988C102.449 27.2988 74.6739 38.8038 54.1949 59.2828C33.7159 79.7617 22.2109 107.537 22.2109 136.499Z" fill="#D9EDFF"/>
<path d="M182.914 205.583H81.0851C79.2619 205.583 77.5135 204.859 76.2243 203.57C74.9352 202.281 74.2109 200.532 74.2109 198.709V66.883C74.2109 64.9824 74.966 63.1597 76.3099 61.8157C77.6538 60.4718 79.4766 59.7168 81.3772 59.7168H182.606C184.506 59.7168 186.329 60.4718 187.673 61.8157C189.017 63.1597 189.772 64.9824 189.772 66.883V198.709C189.773 200.53 189.051 202.276 187.765 203.565C186.479 204.854 184.735 205.58 182.914 205.583Z" fill="#B0D9FF"/>
<path d="M182.914 205.583H81.0851C79.2619 205.583 77.5135 204.859 76.2243 203.57C74.9352 202.281 74.2109 200.532 74.2109 198.709V66.883C74.2109 64.9824 74.966 63.1597 76.3099 61.8157C77.6538 60.4718 79.4766 59.7168 81.3772 59.7168H182.606C184.506 59.7168 186.329 60.4718 187.673 61.8157C189.017 63.1597 189.772 64.9824 189.772 66.883V198.709C189.773 200.53 189.051 202.276 187.765 203.565C186.479 204.854 184.735 205.58 182.914 205.583V205.583Z" stroke="#020064" stroke-width="2.73" stroke-linecap="round" stroke-linejoin="round"/>
<path d="M85.5781 71.0801H178.404V194.217H85.5781V71.0801Z" fill="white"/>
<path d="M178.4 113.264L151.444 142.475C149.744 144.322 148.846 146.768 148.949 149.276C149.051 151.784 150.145 154.149 151.99 155.852C153.147 156.919 154.556 157.676 156.085 158.052L147.321 166.818L148.662 168.159L136.824 179.993C136.295 180.521 135.932 181.193 135.783 181.926C135.634 182.659 135.705 183.419 135.987 184.112C136.268 184.805 136.749 185.399 137.367 185.82C137.985 186.24 138.714 186.469 139.462 186.477C139.737 186.476 140.011 186.448 140.281 186.392C150.655 184.186 155.932 181 155.992 176.911L156.707 176.193L159.388 178.874L165.981 172.262C166.448 172.636 166.949 172.966 167.477 173.247C169.22 174.175 171.21 174.535 173.168 174.277C175.126 174.018 176.954 173.154 178.397 171.806L178.4 113.264Z" fill="#B0D9FF"/>
<path d="M85.5781 71.0801H178.404V194.217H85.5781V71.0801Z" stroke="#020064" stroke-width="2.73" stroke-linecap="round" stroke-linejoin="round"/>
<path d="M98.8125 101.392H156.697" stroke="#020064" stroke-width="2.73" stroke-linecap="round" stroke-linejoin="round"/>
<path d="M98.8125 118.439H156.697" stroke="#020064" stroke-width="2.73" stroke-linecap="round" stroke-linejoin="round"/>
<path d="M98.8125 137.386H139.156" stroke="#020064" stroke-width="2.73" stroke-linecap="round" stroke-linejoin="round"/>
<path d="M98.8125 167.894H139.156" stroke="#020064" stroke-width="2.73" stroke-linecap="round" stroke-linejoin="round"/>
<path d="M106.066 54.0303H157.92C158.829 54.0332 159.701 54.3966 160.343 55.0408C160.985 55.6851 161.346 56.5577 161.346 57.4673V75.2123C161.346 76.1246 160.983 76.9996 160.338 77.6446C159.693 78.2897 158.818 78.6521 157.906 78.6521H106.069C105.156 78.6521 104.281 78.2897 103.636 77.6446C102.991 76.9996 102.629 76.1246 102.629 75.2123V57.4673C102.629 56.5558 102.991 55.6815 103.636 55.037C104.28 54.3924 105.154 54.0303 106.066 54.0303Z" fill="white"/>
<path d="M106.066 54.0303H157.92C158.829 54.0332 159.701 54.3966 160.343 55.0408C160.985 55.6851 161.346 56.5577 161.346 57.4673V75.2123C161.346 76.1246 160.983 76.9996 160.338 77.6446C159.693 78.2897 158.818 78.6521 157.906 78.6521H106.069C105.156 78.6521 104.281 78.2897 103.636 77.6446C102.991 76.9996 102.629 76.1246 102.629 75.2123V57.4673C102.629 56.5558 102.991 55.6815 103.636 55.037C104.28 54.3924 105.154 54.0303 106.066 54.0303V54.0303Z" stroke="#020064" stroke-width="2.73" stroke-linecap="round" stroke-linejoin="round"/>
<path d="M115.891 71.0801H148.096" stroke="#020064" stroke-width="2.73" stroke-linecap="round" stroke-linejoin="round"/>
<path d="M123.461 52.1362C123.461 53.3802 123.706 54.6121 124.182 55.7614C124.658 56.9107 125.356 57.955 126.236 58.8347C127.115 59.7143 128.16 60.4121 129.309 60.8882C130.458 61.3643 131.69 61.6093 132.934 61.6093C134.178 61.6093 135.41 61.3643 136.559 60.8882C137.709 60.4121 138.753 59.7143 139.633 58.8347C140.512 57.955 141.21 56.9107 141.686 55.7614C142.162 54.6121 142.407 53.3802 142.407 52.1362C142.407 50.8922 142.162 49.6603 141.686 48.511C141.21 47.3617 140.512 46.3173 139.633 45.4377C138.753 44.558 137.709 43.8602 136.559 43.3842C135.41 42.9081 134.178 42.6631 132.934 42.6631C131.69 42.6631 130.458 42.9081 129.309 43.3842C128.16 43.8602 127.115 44.558 126.236 45.4377C125.356 46.3173 124.658 47.3617 124.182 48.511C123.706 49.6603 123.461 50.8922 123.461 52.1362Z" fill="white"/>
<path d="M123.461 52.1362C123.461 53.3802 123.706 54.6121 124.182 55.7614C124.658 56.9107 125.356 57.955 126.236 58.8347C127.115 59.7143 128.16 60.4121 129.309 60.8882C130.458 61.3643 131.69 61.6093 132.934 61.6093C134.178 61.6093 135.41 61.3643 136.559 60.8882C137.709 60.4121 138.753 59.7143 139.633 58.8347C140.512 57.955 141.21 56.9107 141.686 55.7614C142.162 54.6121 142.407 53.3802 142.407 52.1362C142.407 50.8922 142.162 49.6603 141.686 48.511C141.21 47.3617 140.512 46.3173 139.633 45.4377C138.753 44.558 137.709 43.8602 136.559 43.3842C135.41 42.9081 134.178 42.6631 132.934 42.6631C131.69 42.6631 130.458 42.9081 129.309 43.3842C128.16 43.8602 127.115 44.558 126.236 45.4377C125.356 46.3173 124.658 47.3617 124.182 48.511C123.706 49.6603 123.461 50.8922 123.461 52.1362V52.1362Z" stroke="#020064" stroke-width="2.73" stroke-linecap="round" stroke-linejoin="round"/>
<path d="M171.875 136.207L205.058 148.584L219.017 126.198L182.937 116.455L171.875 136.207Z" fill="#D9EDFF"/>
<path d="M224.774 173.98L250.475 148.279C250.575 148.183 250.681 148.091 250.791 148.006C242.189 140.543 240.068 124.73 223.524 116.093C201.747 104.719 174.813 107.433 151.154 136.977C150.613 137.62 150.205 138.365 149.955 139.167C149.704 139.97 149.617 140.814 149.697 141.651C149.777 142.488 150.023 143.301 150.421 144.041C150.819 144.782 151.361 145.435 152.015 145.964C152.669 146.492 153.421 146.885 154.229 147.119C155.037 147.353 155.883 147.424 156.718 147.327C157.553 147.23 158.36 146.967 159.092 146.554C159.825 146.141 160.467 145.586 160.982 144.921C162.551 142.981 164.127 141.175 165.711 139.502C166.267 140.097 166.934 140.577 167.674 140.917C192.427 159.658 197.431 162.039 203.486 164.395C212.85 168.034 216.983 169.792 223.868 176.024C223.91 175.255 224.232 174.527 224.774 173.98ZM207.816 133.977C205.73 136.5 202.828 138.216 199.612 138.826C196.395 139.436 193.066 138.903 190.202 137.318L175.563 130.624C184.106 124.373 192.724 121.763 201.307 122.882C208.61 123.821 210.3 130.28 207.816 133.977Z" fill="white"/>
<path d="M90.3008 227.517C90.3008 228.774 94.6292 229.979 102.334 230.868C110.039 231.757 120.488 232.256 131.385 232.256C142.281 232.256 152.73 231.757 160.435 230.868C168.14 229.979 172.468 228.774 172.468 227.517C172.468 226.26 168.14 225.054 160.435 224.165C152.73 223.277 142.281 222.777 131.385 222.777C120.488 222.777 110.039 223.277 102.334 224.165C94.6292 225.054 90.3008 226.26 90.3008 227.517Z" fill="#B0D9FF"/>
<path d="M188.131 138.789C188.961 138.834 189.773 139.041 190.522 139.399C191.271 139.758 191.942 140.26 192.497 140.878C193.052 141.496 193.48 142.217 193.756 143C194.033 143.783 194.152 144.613 194.107 145.442L192.996 165.955C192.951 166.784 192.743 167.596 192.385 168.345C192.026 169.093 191.523 169.764 190.905 170.318C190.287 170.873 189.566 171.3 188.783 171.575C188 171.851 187.171 171.97 186.342 171.925C185.513 171.88 184.701 171.672 183.952 171.313C183.204 170.954 182.533 170.452 181.979 169.834C181.425 169.216 180.998 168.495 180.722 167.712C180.446 166.929 180.328 166.099 180.373 165.27L181.484 144.76C181.574 143.087 182.325 141.518 183.571 140.398C184.818 139.279 186.458 138.7 188.131 138.789Z" fill="#D9EDFF" stroke="#020064" stroke-width="2.73" stroke-linecap="round" stroke-linejoin="round"/>
<path d="M181.593 136.818C183.072 137.606 184.178 138.95 184.667 140.553C185.156 142.156 184.988 143.888 184.2 145.368L176.657 160.05C175.869 161.529 174.526 162.635 172.922 163.124C171.319 163.613 169.587 163.445 168.107 162.657C166.627 161.869 165.522 160.525 165.033 158.922C164.544 157.318 164.712 155.586 165.5 154.107L173.043 139.425C173.831 137.946 175.175 136.84 176.778 136.351C178.382 135.862 180.114 136.03 181.593 136.818Z" fill="#D9EDFF" stroke="#020064" stroke-width="2.73" stroke-linecap="round" stroke-linejoin="round"/>
<path d="M250.475 148.279C250.575 148.183 250.681 148.091 250.791 148.006C242.189 140.543 240.068 124.73 223.524 116.093C201.747 104.719 174.813 107.433 151.154 136.977C150.613 137.62 150.205 138.365 149.955 139.167C149.704 139.97 149.617 140.814 149.697 141.651C149.777 142.488 150.023 143.301 150.421 144.041C150.819 144.782 151.361 145.435 152.015 145.964C152.669 146.492 153.421 146.885 154.229 147.119C155.037 147.353 155.883 147.424 156.718 147.327C157.553 147.23 158.36 146.967 159.092 146.554C159.825 146.141 160.467 145.586 160.982 144.921C162.551 142.981 164.127 141.175 165.711 139.502C166.267 140.097 166.934 140.577 167.674 140.917C192.427 159.658 197.431 162.039 203.486 164.395C212.85 168.034 216.983 169.792 223.868 176.024L250.475 148.279ZM207.826 133.982C205.74 136.508 202.835 138.223 199.616 138.833C196.398 139.442 193.067 138.906 190.202 137.318L175.563 130.624C184.106 124.373 192.724 121.763 201.307 122.882C208.61 123.821 210.3 130.28 207.816 133.977L207.826 133.982Z" stroke="#020064" stroke-width="2.73" stroke-linecap="round" stroke-linejoin="round"/>
<path d="M202.345 135.232L194.105 123.638L219.767 105.41C220.458 104.919 221.238 104.569 222.064 104.38C222.89 104.191 223.744 104.167 224.579 104.308C225.414 104.45 226.213 104.754 226.931 105.205C227.648 105.655 228.27 106.242 228.76 106.933L229.527 108.011C230.018 108.702 230.368 109.482 230.557 110.308C230.745 111.133 230.77 111.988 230.628 112.823C230.487 113.658 230.182 114.457 229.732 115.175C229.282 115.892 228.694 116.514 228.004 117.004L202.345 135.232Z" fill="#B0D9FF"/>
<path d="M202.345 135.232L194.105 123.638L219.767 105.41C220.458 104.919 221.238 104.569 222.064 104.38C222.89 104.191 223.744 104.167 224.579 104.308C225.414 104.45 226.213 104.754 226.931 105.205C227.648 105.655 228.27 106.242 228.76 106.933L229.527 108.011C230.018 108.702 230.368 109.482 230.557 110.308C230.745 111.133 230.77 111.988 230.628 112.823C230.487 113.658 230.182 114.457 229.732 115.175C229.282 115.892 228.694 116.514 228.004 117.004L202.345 135.232Z" stroke="#020064" stroke-width="2.73" stroke-linecap="round" stroke-linejoin="round"/>
<path d="M195.227 117.028L213.264 104.216C213.766 103.842 214.339 103.574 214.948 103.428C215.557 103.282 216.19 103.26 216.807 103.365C217.425 103.47 218.015 103.698 218.542 104.037C219.068 104.375 219.521 104.817 219.873 105.335" stroke="#020064" stroke-width="2.73" stroke-linecap="round" stroke-linejoin="round"/>
<path d="M153.761 156.177L141.091 165.186C140.811 165.381 140.601 165.661 140.494 165.985C140.387 166.308 140.387 166.658 140.496 166.982C140.604 167.305 140.814 167.585 141.094 167.779C141.375 167.973 141.711 168.071 142.052 168.058C147.364 167.839 154.956 166.876 154.844 163.168L157.421 161.339L153.761 156.177Z" fill="#B0D9FF" stroke="#020064" stroke-width="2.73" stroke-linecap="round" stroke-linejoin="round"/>
<path d="M158.339 162.62L153.764 156.177C153.522 155.835 153.425 155.411 153.495 154.998C153.565 154.585 153.796 154.217 154.138 153.974L160.578 149.398L166.985 158.407L160.523 162.98C160.185 163.218 159.766 163.313 159.358 163.246C158.95 163.179 158.584 162.954 158.339 162.62Z" fill="white"/>
<path d="M158.339 162.62L153.764 156.177C153.522 155.835 153.425 155.411 153.495 154.998C153.565 154.585 153.796 154.217 154.138 153.974L160.578 149.398L166.985 158.407L160.523 162.98C160.185 163.218 159.766 163.313 159.358 163.246C158.95 163.179 158.584 162.954 158.339 162.62V162.62Z" stroke="#020064" stroke-width="2.73" stroke-linecap="round" stroke-linejoin="round"/>
<path d="M166.066 157.127L161.491 150.695C161.25 150.357 161.079 149.974 160.986 149.57C160.893 149.165 160.881 148.746 160.95 148.337C161.02 147.928 161.169 147.536 161.389 147.185C161.61 146.833 161.898 146.529 162.236 146.288L194.106 123.638L202.343 135.232L170.473 157.875C170.134 158.115 169.752 158.286 169.347 158.379C168.943 158.471 168.524 158.483 168.114 158.414C167.705 158.344 167.314 158.195 166.962 157.974C166.611 157.753 166.306 157.465 166.066 157.127Z" fill="#B0D9FF"/>
<path d="M166.066 157.127L161.491 150.695C161.25 150.357 161.079 149.974 160.986 149.57C160.893 149.165 160.881 148.746 160.95 148.337C161.02 147.928 161.169 147.536 161.389 147.185C161.61 146.833 161.898 146.529 162.236 146.288L194.106 123.638L202.343 135.232L170.473 157.875C170.134 158.115 169.752 158.286 169.347 158.379C168.943 158.471 168.524 158.483 168.114 158.414C167.705 158.344 167.314 158.195 166.962 157.974C166.611 157.753 166.306 157.465 166.066 157.127Z" stroke="#020064" stroke-width="2.73" stroke-linecap="round" stroke-linejoin="round"/>
<path d="M207.817 133.975C205.732 136.499 202.83 138.214 199.613 138.824C196.397 139.434 193.068 138.901 190.203 137.317L172.922 129.4C172.165 129.039 171.344 128.833 170.507 128.793C169.669 128.753 168.832 128.88 168.044 129.167C167.256 129.454 166.533 129.894 165.917 130.463C165.301 131.031 164.804 131.717 164.455 132.48C164.107 133.242 163.913 134.066 163.886 134.904C163.859 135.742 163.999 136.577 164.297 137.361C164.596 138.144 165.047 138.86 165.626 139.468C166.204 140.075 166.897 140.561 167.664 140.898C192.417 159.643 197.421 162.02 203.476 164.376" fill="white"/>
<path d="M207.817 133.975C205.732 136.499 202.83 138.214 199.613 138.824C196.397 139.434 193.068 138.901 190.203 137.317L172.922 129.4C172.165 129.039 171.344 128.833 170.507 128.793C169.669 128.753 168.832 128.88 168.044 129.167C167.256 129.454 166.533 129.894 165.917 130.463C165.301 131.031 164.804 131.717 164.455 132.48C164.107 133.242 163.913 134.066 163.886 134.904C163.859 135.742 163.999 136.577 164.297 137.361C164.596 138.144 165.047 138.86 165.626 139.468C166.204 140.075 166.897 140.561 167.664 140.898C192.417 159.643 197.421 162.02 203.476 164.376" stroke="#020064" stroke-width="2.73" stroke-linecap="round" stroke-linejoin="round"/>
<path d="M207.817 133.975C205.732 136.499 202.83 138.214 199.613 138.824C196.397 139.434 193.068 138.901 190.203 137.317L172.922 129.4C172.165 129.039 171.344 128.833 170.507 128.793C169.669 128.753 168.832 128.88 168.044 129.167C167.256 129.454 166.533 129.894 165.917 130.463C165.301 131.031 164.804 131.717 164.455 132.48C164.107 133.242 163.913 134.066 163.886 134.904C163.859 135.742 163.999 136.577 164.297 137.361C164.596 138.144 165.047 138.86 165.626 139.468C166.204 140.075 166.897 140.561 167.664 140.898C192.417 159.643 197.421 162.02 203.476 164.376" fill="white"/>
<path d="M207.817 133.975C205.732 136.499 202.83 138.214 199.613 138.824C196.397 139.434 193.068 138.901 190.203 137.317L172.922 129.4C172.165 129.039 171.344 128.833 170.507 128.793C169.669 128.753 168.832 128.88 168.044 129.167C167.256 129.454 166.533 129.894 165.917 130.463C165.301 131.031 164.804 131.717 164.455 132.48C164.107 133.242 163.913 134.066 163.886 134.904C163.859 135.742 163.999 136.577 164.297 137.361C164.596 138.144 165.047 138.86 165.626 139.468C166.204 140.075 166.897 140.561 167.664 140.898C192.417 159.643 197.421 162.02 203.476 164.376" stroke="#020064" stroke-width="2.73" stroke-linecap="round" stroke-linejoin="round"/>
</g>
<path opacity="0.3" d="M32.3982 287.829H34.4842L37.6637 293.362H37.7945L40.974 287.829H43.06L38.6443 295.222V300H36.8139V295.222L32.3982 287.829ZM46.8924 300.184C46.0366 300.184 45.2898 299.988 44.6519 299.596C44.014 299.204 43.5187 298.655 43.1661 297.95C42.8135 297.244 42.6372 296.42 42.6372 295.477C42.6372 294.53 42.8135 293.702 43.1661 292.993C43.5187 292.284 44.014 291.733 44.6519 291.341C45.2898 290.949 46.0366 290.753 46.8924 290.753C47.7482 290.753 48.4951 290.949 49.1329 291.341C49.7708 291.733 50.2661 292.284 50.6187 292.993C50.9713 293.702 51.1476 294.53 51.1476 295.477C51.1476 296.42 50.9713 297.244 50.6187 297.95C50.2661 298.655 49.7708 299.204 49.1329 299.596C48.4951 299.988 47.7482 300.184 46.8924 300.184ZM46.8984 298.693C47.453 298.693 47.9126 298.546 48.2771 298.253C48.6417 297.96 48.9111 297.569 49.0854 297.082C49.2637 296.595 49.3528 296.058 49.3528 295.471C49.3528 294.889 49.2637 294.354 49.0854 293.867C48.9111 293.375 48.6417 292.981 48.2771 292.684C47.9126 292.387 47.453 292.238 46.8984 292.238C46.3397 292.238 45.8762 292.387 45.5077 292.684C45.1432 292.981 44.8718 293.375 44.6935 293.867C44.5192 294.354 44.432 294.889 44.432 295.471C44.432 296.058 44.5192 296.595 44.6935 297.082C44.8718 297.569 45.1432 297.96 45.5077 298.253C45.8762 298.546 46.3397 298.693 46.8984 298.693ZM58.8133 296.214V290.871H60.5962V300H58.849V298.419H58.7539C58.5439 298.906 58.2071 299.313 57.7436 299.637C57.284 299.958 56.7115 300.119 56.026 300.119C55.4396 300.119 54.9206 299.99 54.4689 299.733C54.0212 299.471 53.6686 299.085 53.4111 298.574C53.1575 298.063 53.0307 297.431 53.0307 296.678V290.871H54.8077V296.464C54.8077 297.086 54.98 297.581 55.3247 297.95C55.6694 298.318 56.1171 298.502 56.6679 298.502C57.0007 298.502 57.3315 298.419 57.6604 298.253C57.9932 298.086 58.2685 297.835 58.4864 297.498C58.7083 297.161 58.8173 296.733 58.8133 296.214ZM71.295 300H67.3547V287.829H71.4198C72.6123 287.829 73.6365 288.072 74.4923 288.56C75.3481 289.043 76.0038 289.738 76.4595 290.646C76.9191 291.549 77.1489 292.633 77.1489 293.896C77.1489 295.164 76.9171 296.254 76.4535 297.165C75.9939 298.076 75.3283 298.778 74.4567 299.269C73.585 299.756 72.5311 300 71.295 300ZM69.1911 298.395H71.1939C72.121 298.395 72.8917 298.221 73.5058 297.872C74.1199 297.52 74.5795 297.011 74.8846 296.345C75.1896 295.675 75.3422 294.859 75.3422 293.896C75.3422 292.942 75.1896 292.131 74.8846 291.466C74.5834 290.8 74.1338 290.295 73.5355 289.95C72.9372 289.606 72.1943 289.433 71.3068 289.433H69.1911V298.395ZM83.0346 300.184C82.1788 300.184 81.4319 299.988 80.7941 299.596C80.1562 299.204 79.6609 298.655 79.3083 297.95C78.9557 297.244 78.7794 296.42 78.7794 295.477C78.7794 294.53 78.9557 293.702 79.3083 292.993C79.6609 292.284 80.1562 291.733 80.7941 291.341C81.4319 290.949 82.1788 290.753 83.0346 290.753C83.8904 290.753 84.6372 290.949 85.2751 291.341C85.913 291.733 86.4083 292.284 86.7609 292.993C87.1135 293.702 87.2898 294.53 87.2898 295.477C87.2898 296.42 87.1135 297.244 86.7609 297.95C86.4083 298.655 85.913 299.204 85.2751 299.596C84.6372 299.988 83.8904 300.184 83.0346 300.184ZM83.0405 298.693C83.5952 298.693 84.0548 298.546 84.4193 298.253C84.7838 297.96 85.0532 297.569 85.2276 297.082C85.4059 296.595 85.495 296.058 85.495 295.471C85.495 294.889 85.4059 294.354 85.2276 293.867C85.0532 293.375 84.7838 292.981 84.4193 292.684C84.0548 292.387 83.5952 292.238 83.0405 292.238C82.4819 292.238 82.0183 292.387 81.6499 292.684C81.2853 292.981 81.0139 293.375 80.8357 293.867C80.6613 294.354 80.5742 294.889 80.5742 295.471C80.5742 296.058 80.6613 296.595 80.8357 297.082C81.0139 297.569 81.2853 297.96 81.6499 298.253C82.0183 298.546 82.4819 298.693 83.0405 298.693ZM90.9499 294.58V300H89.1729V290.871H90.8785V292.357H90.9915C91.2015 291.874 91.5303 291.486 91.978 291.192C92.4297 290.899 92.9982 290.753 93.6837 290.753C94.3057 290.753 94.8505 290.883 95.318 291.145C95.7855 291.402 96.1481 291.787 96.4056 292.298C96.6631 292.809 96.7919 293.441 96.7919 294.194V300H95.0149V294.408C95.0149 293.746 94.8426 293.229 94.4979 292.856C94.1532 292.48 93.6797 292.292 93.0775 292.292C92.6654 292.292 92.2989 292.381 91.978 292.559C91.661 292.738 91.4095 292.999 91.2232 293.344C91.041 293.685 90.9499 294.097 90.9499 294.58ZM100.424 287.829V292.161H98.9498V287.829H100.424ZM106.88 290.871V292.298H101.894V290.871H106.88ZM103.231 288.684H105.008V297.32C105.008 297.664 105.059 297.924 105.162 298.098C105.265 298.269 105.398 298.385 105.561 298.449C105.727 298.508 105.907 298.538 106.101 298.538C106.244 298.538 106.369 298.528 106.476 298.508C106.583 298.488 106.666 298.473 106.725 298.461L107.046 299.929C106.943 299.968 106.797 300.008 106.607 300.048C106.416 300.091 106.179 300.115 105.893 300.119C105.426 300.127 104.99 300.044 104.586 299.869C104.182 299.695 103.855 299.426 103.605 299.061C103.356 298.696 103.231 298.239 103.231 297.688V288.684ZM113.216 300V287.829H115.053V293.118H121.121V287.829H122.963V300H121.121V294.693H115.053V300H113.216ZM128.051 300.202C127.473 300.202 126.95 300.095 126.482 299.881C126.014 299.663 125.644 299.348 125.371 298.936C125.101 298.524 124.967 298.019 124.967 297.421C124.967 296.906 125.066 296.482 125.264 296.149C125.462 295.816 125.729 295.553 126.066 295.358C126.403 295.164 126.779 295.018 127.195 294.919C127.611 294.82 128.035 294.744 128.467 294.693C129.014 294.629 129.457 294.578 129.798 294.538C130.139 294.495 130.387 294.425 130.541 294.33C130.696 294.235 130.773 294.081 130.773 293.867V293.825C130.773 293.306 130.626 292.904 130.333 292.619C130.044 292.333 129.612 292.191 129.038 292.191C128.439 292.191 127.968 292.324 127.623 292.589C127.282 292.851 127.047 293.142 126.916 293.463L125.246 293.082C125.444 292.528 125.733 292.08 126.114 291.739C126.498 291.394 126.94 291.145 127.439 290.99C127.938 290.832 128.463 290.753 129.014 290.753C129.378 290.753 129.765 290.796 130.173 290.883C130.585 290.967 130.969 291.121 131.326 291.347C131.686 291.573 131.981 291.896 132.211 292.316C132.441 292.732 132.556 293.272 132.556 293.938V300H130.82V298.752H130.749C130.634 298.982 130.462 299.208 130.232 299.429C130.002 299.651 129.707 299.836 129.347 299.982C128.986 300.129 128.554 300.202 128.051 300.202ZM128.437 298.776C128.929 298.776 129.349 298.679 129.697 298.485C130.05 298.29 130.317 298.037 130.5 297.724C130.686 297.407 130.779 297.068 130.779 296.708V295.531C130.715 295.594 130.593 295.654 130.41 295.709C130.232 295.761 130.028 295.806 129.798 295.846C129.568 295.881 129.345 295.915 129.127 295.947C128.909 295.975 128.726 295.998 128.58 296.018C128.235 296.062 127.92 296.135 127.635 296.238C127.354 296.341 127.128 296.49 126.957 296.684C126.791 296.874 126.708 297.128 126.708 297.444C126.708 297.884 126.87 298.217 127.195 298.443C127.52 298.665 127.934 298.776 128.437 298.776ZM142.305 290.871L138.994 300H137.092L133.776 290.871H135.684L137.996 297.896H138.091L140.397 290.871H142.305ZM147.498 300.184C146.598 300.184 145.824 299.992 145.174 299.608C144.528 299.219 144.029 298.675 143.676 297.973C143.328 297.268 143.153 296.442 143.153 295.495C143.153 294.56 143.328 293.736 143.676 293.023C144.029 292.31 144.52 291.753 145.15 291.353C145.784 290.953 146.525 290.753 147.373 290.753C147.888 290.753 148.387 290.838 148.871 291.008C149.354 291.179 149.788 291.446 150.172 291.81C150.557 292.175 150.86 292.648 151.082 293.231C151.303 293.809 151.414 294.513 151.414 295.341V295.971H144.158V294.639H149.673C149.673 294.172 149.578 293.758 149.388 293.397C149.198 293.033 148.93 292.746 148.585 292.536C148.245 292.326 147.845 292.221 147.385 292.221C146.886 292.221 146.45 292.343 146.077 292.589C145.709 292.831 145.424 293.148 145.222 293.54C145.024 293.928 144.925 294.35 144.925 294.806V295.846C144.925 296.456 145.031 296.975 145.245 297.403C145.463 297.831 145.766 298.158 146.155 298.383C146.543 298.605 146.997 298.716 147.516 298.716C147.852 298.716 148.16 298.669 148.437 298.574C148.714 298.475 148.954 298.328 149.156 298.134C149.358 297.94 149.513 297.7 149.62 297.415L151.301 297.718C151.167 298.213 150.925 298.647 150.576 299.019C150.232 299.388 149.798 299.675 149.275 299.881C148.756 300.083 148.163 300.184 147.498 300.184ZM160.271 300.202C159.692 300.202 159.169 300.095 158.702 299.881C158.234 299.663 157.864 299.348 157.59 298.936C157.321 298.524 157.186 298.019 157.186 297.421C157.186 296.906 157.285 296.482 157.483 296.149C157.682 295.816 157.949 295.553 158.286 295.358C158.623 295.164 158.999 295.018 159.415 294.919C159.831 294.82 160.255 294.744 160.687 294.693C161.233 294.629 161.677 294.578 162.018 294.538C162.359 294.495 162.606 294.425 162.761 294.33C162.915 294.235 162.993 294.081 162.993 293.867V293.825C162.993 293.306 162.846 292.904 162.553 292.619C162.264 292.333 161.832 292.191 161.257 292.191C160.659 292.191 160.188 292.324 159.843 292.589C159.502 292.851 159.266 293.142 159.136 293.463L157.466 293.082C157.664 292.528 157.953 292.08 158.333 291.739C158.718 291.394 159.159 291.145 159.659 290.99C160.158 290.832 160.683 290.753 161.233 290.753C161.598 290.753 161.984 290.796 162.392 290.883C162.804 290.967 163.189 291.121 163.545 291.347C163.906 291.573 164.201 291.896 164.431 292.316C164.661 292.732 164.776 293.272 164.776 293.938V300H163.04V298.752H162.969C162.854 298.982 162.682 299.208 162.452 299.429C162.222 299.651 161.927 299.836 161.566 299.982C161.206 300.129 160.774 300.202 160.271 300.202ZM160.657 298.776C161.148 298.776 161.568 298.679 161.917 298.485C162.27 298.29 162.537 298.037 162.719 297.724C162.905 297.407 162.999 297.068 162.999 296.708V295.531C162.935 295.594 162.812 295.654 162.63 295.709C162.452 295.761 162.248 295.806 162.018 295.846C161.788 295.881 161.564 295.915 161.346 295.947C161.128 295.975 160.946 295.998 160.8 296.018C160.455 296.062 160.14 296.135 159.855 296.238C159.573 296.341 159.348 296.49 159.177 296.684C159.011 296.874 158.928 297.128 158.928 297.444C158.928 297.884 159.09 298.217 159.415 298.443C159.74 298.665 160.154 298.776 160.657 298.776ZM170.913 289.409V287.829H180.333V289.409H176.535V300H174.705V289.409H170.913ZM184.693 300.184C183.837 300.184 183.09 299.988 182.452 299.596C181.814 299.204 181.319 298.655 180.966 297.95C180.614 297.244 180.437 296.42 180.437 295.477C180.437 294.53 180.614 293.702 180.966 292.993C181.319 292.284 181.814 291.733 182.452 291.341C183.09 290.949 183.837 290.753 184.693 290.753C185.548 290.753 186.295 290.949 186.933 291.341C187.571 291.733 188.066 292.284 188.419 292.993C188.771 293.702 188.948 294.53 188.948 295.477C188.948 296.42 188.771 297.244 188.419 297.95C188.066 298.655 187.571 299.204 186.933 299.596C186.295 299.988 185.548 300.184 184.693 300.184ZM184.699 298.693C185.253 298.693 185.713 298.546 186.077 298.253C186.442 297.96 186.711 297.569 186.886 297.082C187.064 296.595 187.153 296.058 187.153 295.471C187.153 294.889 187.064 294.354 186.886 293.867C186.711 293.375 186.442 292.981 186.077 292.684C185.713 292.387 185.253 292.238 184.699 292.238C184.14 292.238 183.676 292.387 183.308 292.684C182.943 292.981 182.672 293.375 182.494 293.867C182.319 294.354 182.232 294.889 182.232 295.471C182.232 296.058 182.319 296.595 182.494 297.082C182.672 297.569 182.943 297.96 183.308 298.253C183.676 298.546 184.14 298.693 184.699 298.693ZM194.248 300.178C193.511 300.178 192.853 299.99 192.275 299.614C191.701 299.233 191.249 298.693 190.92 297.991C190.595 297.286 190.433 296.44 190.433 295.454C190.433 294.467 190.597 293.623 190.926 292.922C191.259 292.221 191.714 291.684 192.293 291.311C192.871 290.939 193.527 290.753 194.26 290.753C194.827 290.753 195.282 290.848 195.627 291.038C195.976 291.224 196.245 291.442 196.435 291.692C196.629 291.941 196.78 292.161 196.887 292.351H196.994V287.829H198.771V300H197.035V298.58H196.887C196.78 298.774 196.625 298.996 196.423 299.245C196.225 299.495 195.952 299.713 195.603 299.899C195.254 300.085 194.803 300.178 194.248 300.178ZM194.64 298.663C195.151 298.663 195.583 298.528 195.936 298.259C196.293 297.985 196.562 297.607 196.744 297.124C196.93 296.64 197.024 296.078 197.024 295.436C197.024 294.802 196.932 294.247 196.75 293.772C196.568 293.296 196.3 292.926 195.948 292.66C195.595 292.395 195.159 292.262 194.64 292.262C194.105 292.262 193.66 292.401 193.303 292.678C192.947 292.956 192.677 293.334 192.495 293.813C192.317 294.293 192.227 294.834 192.227 295.436C192.227 296.046 192.319 296.595 192.501 297.082C192.683 297.569 192.953 297.956 193.309 298.241C193.67 298.522 194.113 298.663 194.64 298.663ZM205.052 300.184C204.196 300.184 203.449 299.988 202.811 299.596C202.173 299.204 201.678 298.655 201.325 297.95C200.973 297.244 200.797 296.42 200.797 295.477C200.797 294.53 200.973 293.702 201.325 292.993C201.678 292.284 202.173 291.733 202.811 291.341C203.449 290.949 204.196 290.753 205.052 290.753C205.908 290.753 206.654 290.949 207.292 291.341C207.93 291.733 208.425 292.284 208.778 292.993C209.131 293.702 209.307 294.53 209.307 295.477C209.307 296.42 209.131 297.244 208.778 297.95C208.425 298.655 207.93 299.204 207.292 299.596C206.654 299.988 205.908 300.184 205.052 300.184ZM205.058 298.693C205.612 298.693 206.072 298.546 206.436 298.253C206.801 297.96 207.07 297.569 207.245 297.082C207.423 296.595 207.512 296.058 207.512 295.471C207.512 294.889 207.423 294.354 207.245 293.867C207.07 293.375 206.801 292.981 206.436 292.684C206.072 292.387 205.612 292.238 205.058 292.238C204.499 292.238 204.035 292.387 203.667 292.684C203.302 292.981 203.031 293.375 202.853 293.867C202.678 294.354 202.591 294.889 202.591 295.471C202.591 296.058 202.678 296.595 202.853 297.082C203.031 297.569 203.302 297.96 203.667 298.253C204.035 298.546 204.499 298.693 205.058 298.693ZM214.722 287.829H216.808L219.988 293.362H220.119L223.298 287.829H225.384L220.968 295.222V300H219.138V295.222L214.722 287.829ZM229.306 300.184C228.406 300.184 227.632 299.992 226.982 299.608C226.336 299.219 225.837 298.675 225.484 297.973C225.136 297.268 224.961 296.442 224.961 295.495C224.961 294.56 225.136 293.736 225.484 293.023C225.837 292.31 226.328 291.753 226.958 291.353C227.592 290.953 228.333 290.753 229.181 290.753C229.696 290.753 230.195 290.838 230.679 291.008C231.162 291.179 231.596 291.446 231.98 291.81C232.364 292.175 232.667 292.648 232.889 293.231C233.111 293.809 233.222 294.513 233.222 295.341V295.971H225.966V294.639H231.481C231.481 294.172 231.386 293.758 231.196 293.397C231.005 293.033 230.738 292.746 230.393 292.536C230.053 292.326 229.652 292.221 229.193 292.221C228.694 292.221 228.258 292.343 227.885 292.589C227.517 292.831 227.232 293.148 227.029 293.54C226.831 293.928 226.732 294.35 226.732 294.806V295.846C226.732 296.456 226.839 296.975 227.053 297.403C227.271 297.831 227.574 298.158 227.963 298.383C228.351 298.605 228.804 298.716 229.324 298.716C229.66 298.716 229.967 298.669 230.245 298.574C230.522 298.475 230.762 298.328 230.964 298.134C231.166 297.94 231.32 297.7 231.427 297.415L233.109 297.718C232.975 298.213 232.733 298.647 232.384 299.019C232.039 299.388 231.606 299.675 231.083 299.881C230.564 300.083 229.971 300.184 229.306 300.184ZM239.355 290.871V292.298H234.368V290.871H239.355ZM235.705 288.684H237.482V297.32C237.482 297.664 237.534 297.924 237.637 298.098C237.74 298.269 237.873 298.385 238.035 298.449C238.202 298.508 238.382 298.538 238.576 298.538C238.719 298.538 238.843 298.528 238.95 298.508C239.057 298.488 239.141 298.473 239.2 298.461L239.521 299.929C239.418 299.968 239.271 300.008 239.081 300.048C238.891 300.091 238.653 300.115 238.368 300.119C237.9 300.127 237.465 300.044 237.06 299.869C236.656 299.695 236.329 299.426 236.08 299.061C235.83 298.696 235.705 298.239 235.705 297.688V288.684Z" fill="#154886"/>
</svg>
