<svg width="105" height="27" viewBox="0 0 105 27" fill="none" xmlns="http://www.w3.org/2000/svg">
<path d="M0.617188 6.01813L0.907814 2.97977H13.4576L13.167 6.01813L8.56978 5.62183L8.4641 14.3406L8.78114 21.21H5.08226L5.39931 14.7898L5.29363 5.64825L0.617188 6.01813ZM13.6248 15.6881C13.6248 13.4335 14.2324 11.5224 15.4478 9.9548C16.6631 8.38718 18.081 7.60337 19.7015 7.60337C21.3396 7.60337 22.6078 8.13178 23.5061 9.1886C24.422 10.2454 24.8799 11.6457 24.8799 13.3895C24.8799 15.7145 24.2899 17.652 23.1098 19.202C21.9473 20.7344 20.4765 21.5006 18.6975 21.5006C17.2356 21.5006 16.0202 20.9546 15.0515 19.8625C14.1003 18.7528 13.6248 17.3614 13.6248 15.6881ZM21.9208 14.7633C21.9208 12.2094 21.049 10.9324 19.3052 10.9324C17.491 10.9324 16.5839 12.1301 16.5839 14.5256C16.5839 15.7761 16.8393 16.7537 17.3501 17.4582C17.8609 18.1628 18.5302 18.5151 19.358 18.5151C20.2035 18.5151 20.8376 18.198 21.2603 17.5639C21.7007 16.9122 21.9208 15.9787 21.9208 14.7633ZM33.557 18.6207C32.1832 20.3469 30.9942 21.21 29.9903 21.21C28.7397 21.21 27.7093 20.6992 26.899 19.6776C26.1064 18.656 25.7101 17.3438 25.7101 15.7409C25.7101 13.5392 26.3178 11.6809 27.5331 10.1662C28.7661 8.65138 30.2721 7.894 32.0511 7.894L33.5306 8.10536V7.60337L33.2136 1.42096L36.8332 0.760441L36.4897 14.3406V16.6656C36.4897 17.7224 36.7539 18.9378 37.2823 20.3117L34.4289 21.5006C33.9181 20.4438 33.6275 19.4838 33.557 18.6207ZM28.6692 14.367C28.6692 15.4943 28.8718 16.375 29.2769 17.0091C29.6996 17.6432 30.2985 17.9602 31.0735 17.9602C31.8661 17.9602 32.6852 17.6432 33.5306 17.0091V11.3022C32.4738 11.0909 31.69 10.9852 31.1792 10.9852C30.3866 10.9852 29.7701 11.267 29.3297 11.8307C28.8894 12.3943 28.6692 13.2398 28.6692 14.367ZM38.47 15.6881C38.47 13.4335 39.0777 11.5224 40.293 9.9548C41.5084 8.38718 42.9263 7.60337 44.5467 7.60337C46.1848 7.60337 47.453 8.13178 48.3513 9.1886C49.2672 10.2454 49.7252 11.6457 49.7252 13.3895C49.7252 15.7145 49.1351 17.652 47.955 19.202C46.7925 20.7344 45.3217 21.5006 43.5428 21.5006C42.0808 21.5006 40.8655 20.9546 39.8967 19.8625C38.9456 18.7528 38.47 17.3614 38.47 15.6881ZM46.7661 14.7633C46.7661 12.2094 45.8942 10.9324 44.1504 10.9324C42.3362 10.9324 41.4291 12.1301 41.4291 14.5256C41.4291 15.7761 41.6845 16.7537 42.1953 17.4582C42.7061 18.1628 43.3754 18.5151 44.2033 18.5151C45.0487 18.5151 45.6828 18.198 46.1056 17.5639C46.5459 16.9122 46.7661 15.9787 46.7661 14.7633Z" fill="#154886"/>
<path d="M66.1778 21.3421L64.8832 16.1901H58.5686L57.1683 21.21L53.7865 20.9458L56.1115 14.5256L59.6519 3.16471L64.3812 2.82125L67.7894 14.1292L69.9823 20.7608L66.1778 21.3421ZM62.0033 6.25592H61.6598L59.3877 13.3895H64.0905L62.0033 6.25592ZM78.3729 7.86757C79.5002 7.86757 80.4425 8.36076 81.1999 9.34713C81.9749 10.3335 82.3624 11.6633 82.3624 13.3366C82.3624 15.6793 81.7547 17.5815 80.5394 19.0435C79.3417 20.4878 77.8445 21.21 76.0479 21.21C75.678 21.21 75.2641 21.1835 74.8061 21.1307L74.9382 26.177L71.3186 26.8375L71.6621 14.7898H71.6885C71.6181 12.4295 71.4243 10.3159 71.1073 8.44883L74.3041 7.76189C74.4098 8.69542 74.4979 9.62014 74.5684 10.5361C74.6036 10.448 74.7797 10.2102 75.0968 9.8227C75.4314 9.41758 75.9158 8.99485 76.5499 8.55451C77.184 8.09655 77.7917 7.86757 78.3729 7.86757ZM77.3425 11.3022C76.409 11.3022 75.5019 11.5576 74.6212 12.0684V14.3406L74.7269 18.1188C75.678 18.2773 76.4002 18.3565 76.8934 18.3565C78.5843 18.3565 79.4297 17.1852 79.4297 14.8426C79.4297 12.4824 78.734 11.3022 77.3425 11.3022ZM91.0277 7.86757C92.155 7.86757 93.0974 8.36076 93.8547 9.34713C94.6298 10.3335 95.0173 11.6633 95.0173 13.3366C95.0173 15.6793 94.4096 17.5815 93.1942 19.0435C91.9965 20.4878 90.4993 21.21 88.7027 21.21C88.3328 21.21 87.9189 21.1835 87.461 21.1307L87.5931 26.177L83.9735 26.8375L84.3169 14.7898H84.3433C84.2729 12.4295 84.0791 10.3159 83.7621 8.44883L86.959 7.76189C87.0647 8.69542 87.1527 9.62014 87.2232 10.5361C87.2584 10.448 87.4346 10.2102 87.7516 9.8227C88.0863 9.41758 88.5706 8.99485 89.2047 8.55451C89.8388 8.09655 90.4465 7.86757 91.0277 7.86757ZM89.9973 11.3022C89.0638 11.3022 88.1567 11.5576 87.276 12.0684V14.3406L87.3817 18.1188C88.3328 18.2773 89.055 18.3565 89.5482 18.3565C91.2391 18.3565 92.0846 17.1852 92.0846 14.8426C92.0846 12.4824 91.3888 11.3022 89.9973 11.3022ZM100.618 18.7528C101.534 18.7528 101.992 18.3477 101.992 17.5375C101.992 17.2557 101.789 16.9915 101.384 16.7449C100.996 16.4983 100.512 16.2517 99.9309 16.0051C99.3672 15.7585 98.7948 15.4855 98.2135 15.1861C97.6499 14.869 97.1655 14.4375 96.7604 13.8915C96.3729 13.3454 96.1791 12.7202 96.1791 12.0156C96.1791 10.8355 96.6987 9.80508 97.738 8.9244C98.7772 8.04371 99.9749 7.60337 101.331 7.60337C101.965 7.60337 102.582 7.68263 103.181 7.84115C103.797 7.98206 104.387 8.21104 104.951 8.52809L103.181 11.7514C103.057 11.6457 102.899 11.5136 102.705 11.3551C102.511 11.1966 102.141 10.994 101.595 10.7474C101.067 10.4832 100.591 10.3511 100.169 10.3511C99.7635 10.3511 99.4465 10.448 99.2175 10.6417C99.0061 10.8179 98.9005 11.0733 98.9005 11.4079C98.9005 11.725 99.1999 12.0508 99.7988 12.3855C100.415 12.7025 101.085 13.002 101.807 13.2838C102.529 13.548 103.189 13.9971 103.788 14.6312C104.405 15.2477 104.713 15.9875 104.713 16.8506C104.713 18.0835 104.202 19.1668 103.181 20.1003C102.177 21.0338 101.014 21.5006 99.6931 21.5006C98.8476 21.5006 98.055 21.3156 97.3152 20.9458C96.5931 20.5759 96.0735 20.206 95.7564 19.8361L95.2808 19.2813L97.3681 16.8506C97.4737 16.9915 97.6235 17.1676 97.8172 17.379C98.011 17.5903 98.3897 17.8722 98.9533 18.2244C99.5345 18.5767 100.089 18.7528 100.618 18.7528Z" fill="#E11D23"/>
</svg>
